HIERARCHY
ROOT Hips
{
 OFFSET 0.000000 0.000000 0.000000
 CHANNELS 6 Xposition Yposition Zposition Yrotation Xrotation Zrotation
 JOINT Chest
 {
  OFFSET 0.000000 10.388337 0.005184
  CHANNELS 3 Yrotation Xrotation Zrotation
  JOINT Chest2
  {
   OFFSET 0.000000 10.458247 -0.010579
   CHANNELS 3 Yrotation Xrotation Zrotation
   JOINT Chest3
   {
    OFFSET 0.000000 10.415828 0.000000
    CHANNELS 3 Yrotation Xrotation Zrotation
    JOINT Chest4
    {
     OFFSET 0.000000 10.405206 0.000000
     CHANNELS 3 Yrotation Xrotation Zrotation
     JOINT Neck
     {
      OFFSET 0.000000 15.720090 0.000000
      CHANNELS 3 Yrotation Xrotation Zrotation
      JOINT Head
      {
       OFFSET 0.000000 9.732643 -0.022378
       CHANNELS 3 Yrotation Xrotation Zrotation
       End Site
       {
        OFFSET 0.000000 18.603619 -0.011814
       }
      }
     }
     JOINT RightCollar
     {
      OFFSET -3.167735 10.388953 0.000000
      CHANNELS 3 Yrotation Xrotation Zrotation
      JOINT RightShoulder
      {
       OFFSET -14.584825 0.000000 0.000000
       CHANNELS 3 Yrotation Xrotation Zrotation
       JOINT RightElbow
       {
        OFFSET 0.000000 -31.921689 0.000000
        CHANNELS 3 Yrotation Xrotation Zrotation
        JOINT RightWrist
        {
         OFFSET 0.000000 -25.835217 0.000000
         CHANNELS 3 Yrotation Xrotation Zrotation
         End Site
         {
          OFFSET 0.000000 -19.128920 0.000000
         }
        }
       }
      }
     }
     JOINT LeftCollar
     {
      OFFSET 3.167735 10.388953 0.000000
      CHANNELS 3 Yrotation Xrotation Zrotation
      JOINT LeftShoulder
      {
       OFFSET 14.584825 0.000000 0.000000
       CHANNELS 3 Yrotation Xrotation Zrotation
       JOINT LeftElbow
       {
        OFFSET 0.000000 -31.921689 0.000000
        CHANNELS 3 Yrotation Xrotation Zrotation
        JOINT LeftWrist
        {
         OFFSET 0.000000 -25.835217 0.000000
         CHANNELS 3 Yrotation Xrotation Zrotation
         End Site
         {
          OFFSET 0.000000 -19.128920 0.000000
         }
        }
       }
      }
     }
    }
   }
  }
 }
 JOINT RightHip
 {
  OFFSET -8.403278 -0.025659 -0.002592
  CHANNELS 3 Yrotation Xrotation Zrotation
  JOINT RightKnee
  {
   OFFSET 0.000000 -44.040977 0.002477
   CHANNELS 3 Yrotation Xrotation Zrotation
   JOINT RightAnkle
   {
    OFFSET 0.000000 -42.951162 0.004189
    CHANNELS 3 Yrotation Xrotation Zrotation
    JOINT RightToe
    {
     OFFSET 0.000000 -5.494238 12.197485
     CHANNELS 3 Yrotation Xrotation Zrotation
     End Site
     {
      OFFSET 0.000000 -1.538716 6.371628
     }
    }
   }
  }
 }
 JOINT LeftHip
 {
  OFFSET 8.403278 -0.025659 -0.002592
  CHANNELS 3 Yrotation Xrotation Zrotation
  JOINT LeftKnee
  {
   OFFSET 0.000000 -44.040977 0.002477
   CHANNELS 3 Yrotation Xrotation Zrotation
   JOINT LeftAnkle
   {
    OFFSET 0.000000 -42.951162 0.004189
    CHANNELS 3 Yrotation Xrotation Zrotation
    JOINT LeftToe
    {
     OFFSET 0.000000 -5.494238 12.197485
     CHANNELS 3 Yrotation Xrotation Zrotation
     End Site
     {
      OFFSET 0.000000 -1.538716 6.371628
     }
    }
   }
  }
 }
}
MOTION
Frames: 7
Frame Time: 0.008333
0.000000 92.319940 0.000000 0.000000 -5.767889 0.000000 0.000000 11.653876 0.000000 0.000000 -5.885988 0.000000 0.000000 -0.000000 0.000000 0.000000 -0.000000 0.000000 0.000000 12.528808 0.000000 0.000000 0.711711 0.000000 0.000000 -0.000000 0.000000 0.000000 0.000000 -90.000000 0.000000 -2.309063 0.000000 0.000000 2.309063 0.000000 0.000000 -0.000000 0.000000 0.000000 -0.000000 90.000000 0.000000 -2.309063 0.000000 0.000000 2.309063 0.000000 0.000000 8.520374 0.000000 0.000000 1.905768 0.000000 -0.000000 -4.658254 0.000000 0.000000 -0.000000 0.000000 0.000000 8.520374 0.000000 0.000000 1.905768 0.000000 -0.000000 -4.658254 0.000000 0.000000 -0.000000 0.000000
-18.842337 91.308985 102.942482 95.947046 -7.755055 -1.136122 2.570942 4.042309 0.488723 0.070175 0.110913 -0.002127 0.124760 0.197192 -0.003688 2.434232 3.845935 0.005576 7.103834 22.574761 6.662415 11.032676 5.933555 10.119323 2.560012 3.038938 -0.086379 3.710236 -0.846295 -8.526333 3.277605 -8.651240 7.256921 -4.274646 13.192553 -19.445378 1.065354 2.633798 3.480821 6.176040 -6.123415 8.171358 5.851839 -3.132190 -6.111327 4.620128 -9.334952 1.276680 -2.261036 15.563911 2.801515 -7.579570 9.755558 -0.645137 -14.400454 -16.294298 0.817145 -0.011848 0.236809 -0.034484 5.654594 -1.817783 12.960643 18.351992 -1.488919 1.625220 -16.293133 12.069028 -14.039076 -0.094692 -0.578612 -0.080763
-18.852597 91.319062 102.917299 95.661860 -7.766887 -1.121437 2.578327 4.047059 0.490336 0.070587 0.111264 -0.002223 0.125485 0.197806 -0.003857 2.443408 3.850253 0.002813 7.172302 22.595023 6.640776 11.162680 5.970295 10.063102 2.553645 3.052216 -0.075344 3.683882 -0.927049 -8.533146 3.339878 -8.748299 7.295067 -4.260314 13.237665 -19.416968 1.030253 2.676939 3.450723 6.337484 -6.154906 8.159180 6.023517 -3.364819 -6.382964 4.666279 -9.380948 1.191288 -2.158045 15.557726 2.743403 -7.506929 9.726416 -0.630901 -14.295067 -16.256080 0.815438 -0.011580 0.249722 -0.038774 5.720885 -1.746839 12.977460 18.418571 -1.463813 1.641790 -16.177556 12.015212 -14.028355 -0.098554 -0.567615 -0.083007
-18.865251 91.330412 102.886378 95.390893 -7.775940 -1.107108 2.580423 4.051470 0.489544 0.070767 0.111566 -0.002308 0.125801 0.198336 -0.004008 2.446151 3.855387 0.000163 7.234009 22.616311 6.620026 11.280283 6.009139 10.010385 2.547919 3.068115 -0.066574 3.646507 -1.016752 -8.529226 3.462638 -8.846757 7.299651 -4.247829 13.266608 -19.407726 0.997004 2.721237 3.421119 6.490406 -6.182042 8.136520 6.202575 -3.582473 -6.648897 4.709568 -9.406587 1.090853 -2.062930 15.549551 2.679022 -7.433890 9.694927 -0.615619 -14.178470 -16.209676 0.814072 -0.010563 0.256988 -0.041523 5.769213 -1.682015 12.988122 18.482190 -1.432407 1.659698 -16.055940 11.959092 -14.011479 -0.101854 -0.558897 -0.086197
-18.879878 91.342568 102.850819 95.135605 -7.781798 -1.094384 2.574974 4.056862 0.487019 0.070685 0.111837 -0.002388 0.125653 0.198814 -0.004151 2.441443 3.861961 -0.002569 7.289227 22.637696 6.599708 11.386060 6.048357 9.960225 2.548047 3.084434 -0.059026 3.600736 -1.112891 -8.517700 3.630764 -8.946078 7.276403 -4.232606 13.284437 -19.411163 0.963588 2.764129 3.389732 6.640552 -6.204991 8.108419 6.374250 -3.784084 -6.903842 4.744536 -9.415313 0.976257 -1.982781 15.538960 2.612240 -7.359353 9.660338 -0.600328 -14.071902 -16.155926 0.814915 -0.009587 0.260205 -0.041901 5.802074 -1.624635 12.995937 18.536351 -1.393815 1.675268 -15.923995 11.899333 -13.984672 -0.104916 -0.550600 -0.091787
-18.896070 91.355128 102.811485 94.893926 -7.784263 -1.082999 2.562686 4.063296 0.483335 0.070387 0.112081 -0.002482 0.125123 0.199247 -0.004317 2.430572 3.869700 -0.005980 7.337728 22.658792 6.579200 11.479752 6.087247 9.911535 2.552980 3.100034 -0.051508 3.555065 -1.214108 -8.501903 3.828320 -9.042661 7.226304 -4.214298 13.296622 -19.417717 0.927352 2.806539 3.355748 6.787709 -6.224897 8.077399 6.531006 -3.969119 -7.141582 4.772280 -9.407595 0.849578 -1.917396 15.524632 2.544586 -7.287309 9.624960 -0.587397 -13.975991 -16.097605 0.818717 -0.009075 0.261067 -0.039955 5.820673 -1.575968 13.002214 18.581299 -1.345292 1.689005 -15.783964 11.833796 -13.949682 -0.107731 -0.542813 -0.099067
-18.913048 91.367882 102.768807 94.662620 -7.785867 -1.071982 2.545606 4.072241 0.479035 0.069964 0.112378 -0.002571 0.124371 0.199774 -0.004476 2.415578 3.879550 -0.009333 7.378143 22.679342 6.557954 11.559032 6.125360 9.863669 2.562220 3.114379 -0.045939 3.514319 -1.317966 -8.482828 4.036471 -9.133570 7.157309 -4.192786 13.300562 -19.428667 0.888368 2.849923 3.317364 6.923237 -6.243864 8.043557 6.668733 -4.138109 -7.354138 4.793452 -9.382848 0.717065 -1.862344 15.508914 2.478243 -7.218719 9.589285 -0.580778 -13.893710 -16.036260 0.829929 -0.009278 0.260935 -0.037968 5.826281 -1.533886 13.006576 18.623475 -1.284200 1.701622 -15.634177 11.760903 -13.907524 -0.109734 -0.534690 -0.105779
